# xmcd CD database file
#
# Track frame offsets:
#	150
#	13937
#	28652
#	49636
#	68069
#	84860
#	107562
#	123207
#	140177
#	154140
#	166561
#	196119
#	220383
#	243630
#	264954
#
# Disc length: 3709 seconds
#
# Revision: 16
# Processed by: cddbd v1.5PL3 Copyright (c) Steve Scherf et al.
# Submitted via: CDex 1.51
#
DISCID=c40e7b0f
DTITLE=Various Artist - Merimbula Jazz Festival 2003
DYEAR=2003
DGENRE=Jazz
TTITLE0=Hot B'Hines - Ice Cream
TTITLE1=Black Mountain Jazz Band - Booga Blue
TTITLE2=Riviera Dixie Band - Old Man Mose
TTITLE3=Crazy
TTITLE4=Running Wild - Sweet Sue
TTITLE5=Extreme Jazz - I Can't Get Started
TTITLE6=Two Balloons in Tea Cup - Bye Bye Blackbird
TTITLE7=Bairnsdale College Band - Cute
TTITLE8=Wombat Jazz Band - Taking No Risk
TTITLE9=Blamey St Big Band - Love
TTITLE10=Benjamin and Co - Harpers Ferry
TTITLE11=Sharpies Blunt Instruments - Someday You'll Be Sorry
TTITLE12=North Sydney Big Band #2 - Jumpin' at the Woodside
TTITLE13=Cooking with Cherrie - Straighten Up and Fligh Right
TTITLE14=Garrigal Big Band - Zoot Suit Ride
EXTD=YEAR: 2003
EXTT0=
EXTT1=
EXTT2=
EXTT3=
EXTT4=
EXTT5=
EXTT6=
EXTT7=
EXTT8=
EXTT9=
EXTT10=
EXTT11=
EXTT12=
EXTT13=
EXTT14=
PLAYORDER=
